<?xml version="1.0" encoding="UTF-8"?>
<svg id="Layer_1" data-name="Layer 1" xmlns="http://www.w3.org/2000/svg" xmlns:xlink="http://www.w3.org/1999/xlink" viewBox="0 0 705.94 700.01">
  <defs>
    <style>
      .cls-1 {
        fill: url(#linear-gradient);
      }
    </style>
    <linearGradient id="linear-gradient" x1="22.85" y1="533.01" x2="635.04" y2="179.56" gradientUnits="userSpaceOnUse">
      <stop offset="0" stop-color="#fff" stop-opacity="0"/>
      <stop offset=".01" stop-color="#f9fbf5" stop-opacity=".05"/>
      <stop offset=".11" stop-color="#dae9be" stop-opacity=".34"/>
      <stop offset=".2" stop-color="#c0da90" stop-opacity=".57"/>
      <stop offset=".29" stop-color="#accf6c" stop-opacity=".76"/>
      <stop offset=".37" stop-color="#9dc652" stop-opacity=".89"/>
      <stop offset=".44" stop-color="#95c143" stop-opacity=".97"/>
      <stop offset=".5" stop-color="#92c03e"/>
      <stop offset=".57" stop-color="#94c141" stop-opacity=".98"/>
      <stop offset=".65" stop-color="#9bc54d" stop-opacity=".92"/>
      <stop offset=".72" stop-color="#a6cb61" stop-opacity=".81"/>
      <stop offset=".79" stop-color="#b6d47e" stop-opacity=".67"/>
      <stop offset=".86" stop-color="#cae0a2" stop-opacity=".48"/>
      <stop offset=".93" stop-color="#e3eecd" stop-opacity=".26"/>
      <stop offset="1" stop-color="#fff" stop-opacity="0"/>
    </linearGradient>
  </defs>
  <path class="cls-1" d="M677.65,260.25c-8.08-18.51-17.55-36.42-28.47-53.41-10.93-16.99-23.35-33-37.05-47.85-27.35-29.74-60.15-54.35-95.99-72.96-8.97-4.65-18.11-8.95-27.41-12.89-9.29-3.95-18.77-7.47-28.4-10.53-19.24-6.13-39.02-10.6-59.05-13.2-10.01-1.32-20.08-2.22-30.17-2.72l-7.57-.27c-2.52-.09-5.05-.08-7.57-.12-5.05-.08-10.1,0-15.15.17-20.19.64-40.33,2.96-60.11,7.04l-.28.06-.16-.24c-4.37-6.29-9.29-12.18-14.7-17.6l-4.15-3.97-4.37-3.72-1.09-.93-1.15-.86-2.29-1.73-2.29-1.73-2.39-1.59-2.39-1.59-1.2-.79-1.24-.72-4.97-2.88c-3.42-1.72-6.8-3.51-10.36-4.93-7.05-2.96-14.36-5.37-21.87-6.87-.94-.19-1.86-.45-2.81-.59l-2.84-.45c-1.89-.27-3.77-.67-5.68-.8l-5.72-.54-5.74-.19c-7.65-.16-15.32.44-22.86,1.74-15.09,2.6-29.66,8.14-42.66,16.22-13.01,8.06-24.47,18.64-33.55,30.96-9.1,12.32-15.82,26.39-19.64,41.22-1.91,7.42-3.09,15.02-3.55,22.66-.21,3.82-.29,7.65-.19,11.48.15,3.83.44,7.65.92,11.44,1.94,15.19,6.84,29.99,14.33,43.35l.12.22-.16.2c-18.02,22.99-33.06,48.26-45.08,74.88l-2.22,5.01-2.12,5.05c-1.45,3.35-2.71,6.78-4.05,10.17-2.54,6.84-4.95,13.74-7.04,20.73-2.18,6.97-3.97,14.05-5.69,21.15-1.6,7.12-3.1,14.27-4.24,21.48-1.24,7.2-2.1,14.45-2.89,21.71-.67,7.27-1.24,14.55-1.48,21.85-.54,14.59-.3,29.22.92,43.77,1.2,14.55,3.29,29.03,6.3,43.32,3.02,14.29,6.98,28.37,11.64,42.21,9.34,27.68,21.88,54.27,37.33,79.06,15.5,24.76,34.31,47.43,55.77,67.25,10.7,9.94,22.03,19.2,33.92,27.68,2.97,2.13,5.99,4.18,9.02,6.21,3.04,2.04,6.11,3.99,9.5,5.28,6.76,2.65,14.35,2.92,21.35,1.08,7-1.89,13.35-6.04,17.94-11.65,2.29-2.84,4.66-5.65,6.7-8.63,1.9-3.08,3.44-6.39,4.36-9.91.86-3.52,1.22-7.15,1.03-10.78-.29-3.62-1.09-7.18-2.37-10.57-1.34-3.37-3.23-6.5-5.47-9.35-2.29-2.82-5.05-5.21-8.01-7.3l.44-.24-.44.24c-7.85-5.27-15.44-10.94-22.7-17.01-3.64-3.03-7.17-6.17-10.64-9.38-3.48-3.2-6.89-6.48-10.2-9.86-13.3-13.45-25.32-28.17-35.77-43.94-10.49-15.74-19.39-32.54-26.53-50.06-7.12-17.52-12.64-35.71-16.05-54.33-3.43-18.6-4.82-37.58-4.2-56.48.61-18.91,3.29-37.75,8.02-56.06,4.7-18.33,11.49-36.09,19.88-53.04,8.37-16.96,18.34-33.13,29.84-48.15l.11-.14.16.07c17.9,7.8,37.73,11.13,57.2,9.59,4.88-.3,9.71-1.07,14.51-1.94,4.77-1.03,9.53-2.17,14.14-3.76,4.66-1.47,9.16-3.39,13.6-5.4l3.28-1.64,1.64-.82,1.6-.89,3.19-1.79,3.11-1.93c16.55-10.38,30.43-24.91,40.23-41.8,4.85-8.47,8.7-17.52,11.42-26.9,2.65-9.4,4.19-19.11,4.58-28.87v-.15s.15-.03.15-.03c28.11-5.57,57.09-6.57,85.54-3.16,14.22,1.71,28.29,4.64,42.04,8.69,6.86,2.06,13.64,4.38,20.32,6.96,6.67,2.61,13.22,5.51,19.68,8.61,25.8,12.44,49.91,28.44,71.12,47.71,21.22,19.24,39.47,41.75,53.97,66.45,14.48,24.7,25.66,51.43,31.99,79.39,6.36,27.93,8.02,56.92,4.92,85.39-1.55,14.24-4.33,28.34-8.3,42.1-4,13.75-9.03,27.2-14.93,40.25-5.92,13.04-12.77,25.66-20.48,37.73-7.71,12.07-16.41,23.5-25.92,34.21-9.5,10.71-19.86,20.66-30.87,29.81-5.51,4.58-11.17,8.97-16.98,13.15-2.91,2.09-5.85,4.13-8.83,6.12-3,1.96-5.98,3.93-8.55,6.43-2.5,2.55-4.63,5.45-6.29,8.61-1.67,3.16-2.72,6.62-3.35,10.12-.65,3.51-.66,7.13-.16,10.66.17,1.78.67,3.51,1.1,5.23l.87,2.53c.27.85.72,1.63,1.07,2.45,1.52,3.23,3.59,6.18,5.62,9.11,1.99,2.98,4.56,5.52,7.36,7.72,1.39,1.13,2.93,2.03,4.46,2.96l2.4,1.18c.79.42,1.66.66,2.48,1,3.35,1.2,6.88,1.98,10.45,2.13,3.57.13,7.15-.27,10.6-1.18,3.47-.9,6.68-2.53,9.73-4.38,6.08-3.78,12.02-7.77,17.83-11.95,11.61-8.37,22.68-17.49,33.1-27.3,20.91-19.55,39.49-41.59,55.21-65.52,7.85-11.97,15-24.4,21.33-37.23,6.31-12.85,11.83-26.08,16.54-39.6,4.7-13.52,8.61-27.32,11.63-41.31,3-14,5.1-28.18,6.36-42.44,2.43-28.52,1.6-57.34-2.71-85.64-2.21-14.14-5.26-28.16-9.22-41.91-4-13.75-8.85-27.24-14.52-40.39l-.46.2ZM678.11,260.05c5.67,13.15,10.53,26.64,14.53,40.38,3.96,13.76,7.02,27.77,9.23,41.91,4.33,28.3,5.16,57.12,2.74,85.65-1.26,14.26-3.35,28.45-6.35,42.45-3.02,14-6.92,27.8-11.62,41.32-4.71,13.52-10.22,26.76-16.53,39.61-6.33,12.84-13.48,25.28-21.33,37.25-15.71,23.94-34.29,45.99-55.21,65.55-10.42,9.82-21.49,18.95-33.1,27.32-5.81,4.19-11.76,8.17-17.84,11.96-3.06,1.86-6.29,3.5-9.77,4.4-3.47.92-7.06,1.32-10.65,1.19-3.59-.14-7.13-.92-10.5-2.13-.83-.34-1.7-.59-2.49-1.01l-2.41-1.19c-1.53-.93-3.08-1.84-4.48-2.97-2.81-2.2-5.4-4.76-7.4-7.75-2.04-2.94-4.11-5.88-5.64-9.13-.35-.82-.8-1.61-1.07-2.46l-.88-2.54c-.43-1.74-.93-3.47-1.11-5.26-.5-3.55-.49-7.18.16-10.71.63-3.52,1.69-6.99,3.36-10.17,1.67-3.18,3.81-6.09,6.32-8.66,2.58-2.51,5.58-4.5,8.57-6.46,2.98-1.99,5.92-4.03,8.82-6.12,5.81-4.18,11.46-8.57,16.96-13.15,11.01-9.15,21.35-19.09,30.85-29.8,9.5-10.7,18.18-22.13,25.89-34.19,7.7-12.06,14.54-24.67,20.45-37.71,5.89-13.04,10.92-26.48,14.91-40.22,3.97-13.75,6.74-27.84,8.28-42.06,3.09-28.45,1.43-57.41-4.94-85.31-6.33-27.93-17.51-54.64-31.98-79.31-14.5-24.67-32.73-47.14-53.94-66.36-21.19-19.24-45.29-35.21-71.06-47.64-6.45-3.1-12.99-6-19.66-8.6-6.67-2.57-13.44-4.89-20.3-6.95-13.73-4.03-27.78-6.96-41.98-8.66-28.4-3.4-57.35-2.39-85.42,3.18l.15-.18c-.39,9.79-1.93,19.53-4.59,28.96-2.73,9.41-6.59,18.49-11.45,26.99-9.83,16.95-23.75,31.53-40.35,41.95l-3.12,1.94-3.21,1.8-1.6.9-1.64.82-3.29,1.64c-4.46,2.03-8.98,3.94-13.65,5.42-4.63,1.6-9.41,2.74-14.19,3.78-4.82.88-9.66,1.65-14.56,1.95-19.54,1.55-39.44-1.79-57.41-9.61l.27-.07c-11.48,15-21.43,31.15-29.78,48.08-8.37,16.93-15.14,34.66-19.83,52.95-4.71,18.28-7.38,37.09-7.99,55.96-.62,18.87.77,37.81,4.2,56.38,3.41,18.57,8.93,36.73,16.04,54.22,7.13,17.48,16.02,34.25,26.49,49.96,10.44,15.73,22.44,30.42,35.72,43.85,3.31,3.37,6.71,6.64,10.19,9.84,3.47,3.21,6.99,6.34,10.62,9.36,7.24,6.05,14.82,11.71,22.65,16.97l-.44.24.44-.24c3.01,2.12,5.81,4.55,8.14,7.41,2.27,2.9,4.19,6.07,5.56,9.5,1.31,3.45,2.12,7.07,2.41,10.74.19,3.68-.17,7.38-1.04,10.96-.93,3.57-2.5,6.95-4.43,10.08-2.09,3.06-4.44,5.83-6.73,8.69-4.66,5.71-11.12,9.92-18.24,11.85-7.11,1.88-14.84,1.6-21.72-1.09-3.45-1.32-6.59-3.31-9.62-5.34-3.04-2.03-6.07-4.09-9.04-6.22-11.92-8.49-23.27-17.76-33.99-27.72-21.5-19.85-40.36-42.56-55.89-67.36-15.49-24.83-28.06-51.46-37.42-79.19-4.67-13.86-8.65-27.97-11.67-42.28-3.01-14.32-5.11-28.83-6.32-43.41-1.23-14.58-1.48-29.24-.94-43.86.24-7.31.81-14.61,1.47-21.89.79-7.27,1.65-14.54,2.89-21.75,1.14-7.23,2.64-14.39,4.25-21.53,1.72-7.11,3.52-14.21,5.7-21.19,2.09-7.01,4.5-13.92,7.05-20.78,1.35-3.4,2.6-6.84,4.06-10.2l2.12-5.06,2.22-5.02c12.03-26.67,27.1-52,45.15-75.04l-.03.42c-7.55-13.44-12.48-28.34-14.44-43.63-.48-3.82-.78-7.67-.93-11.52-.11-3.85-.03-7.71.19-11.55.46-7.69,1.65-15.34,3.57-22.81,3.85-14.93,10.61-29.09,19.76-41.49,9.14-12.41,20.67-23.06,33.77-31.18,13.09-8.14,27.76-13.72,42.95-16.34,7.59-1.31,15.31-1.91,23.01-1.76l5.78.19,5.76.54c1.93.12,3.82.53,5.72.8l2.85.45c.95.14,1.88.4,2.83.6,7.56,1.51,14.92,3.93,22.02,6.91,3.58,1.43,7,3.23,10.44,4.96l5,2.9,1.25.73,1.21.8,2.41,1.6,2.41,1.6,2.31,1.74,2.31,1.74,1.15.87,1.1.94,4.41,3.74,4.18,4c5.45,5.45,10.41,11.39,14.81,17.72l-.45-.18c19.83-4.09,40.02-6.43,60.26-7.07,5.06-.16,10.12-.25,15.18-.17,2.53.04,5.06.03,7.59.12l7.59.27c10.11.5,20.2,1.4,30.24,2.72,20.08,2.6,39.92,7.08,59.21,13.22,9.65,3.06,19.16,6.59,28.48,10.55,9.32,3.95,18.49,8.26,27.48,12.91,35.94,18.64,68.84,43.31,96.27,73.13,13.74,14.88,26.2,30.94,37.16,47.97,10.96,17.04,20.46,34.99,28.56,53.55l-.46.2Z"/>
</svg>