<?xml version="1.0" encoding="UTF-8"?>
<svg id="Layer_1" data-name="Layer 1" xmlns="http://www.w3.org/2000/svg" viewBox="0 0 136.92 135.71">
  <defs>
    <style>
      .cls-1 {
        fill: #92c03e;
      }

      .cls-2 {
        fill: #fff;
      }
    </style>
  </defs>
  <path class="cls-2" d="M131.52,50.39c-3.6-8.28-8.46-15.48-14.58-21.6-6.12-6.11-13.35-10.97-21.7-14.57-8.35-3.6-17.28-5.4-26.78-5.4-4.84,0-9.54.47-14.08,1.41,2.9,4.24,4.24,9.18,4.05,14.06,3.33-.66,6.75-1,10.25-1,7.34,0,14.28,1.47,20.84,4.42,6.54,2.96,12.27,6.88,17.16,11.77,4.9,4.9,8.78,10.62,11.66,17.17,2.88,6.55,4.32,13.36,4.32,20.41,0,5.18-.79,10.22-2.37,15.11-1.59,4.9-3.75,9.47-6.48,13.72-2.74,4.25-6.05,8.06-9.93,11.44-2.12,1.84-4.32,3.5-6.6,4.98-3.15,2.04-3.98,6.28-1.92,9.41l.52.78c2.01,3.05,6.1,4,9.2,2.07,3.41-2.11,6.61-4.55,9.59-7.3,4.61-4.25,8.57-9,11.88-14.26,3.31-5.25,5.87-10.93,7.67-17.06,1.8-6.11,2.7-12.48,2.7-19.11,0-9.35-1.81-18.17-5.4-26.45ZM38.95,122.14c-2.1-1.41-4.11-2.97-6.01-4.7-3.82-3.45-7.1-7.3-9.83-11.55-2.74-4.25-4.86-8.82-6.37-13.72-1.51-4.89-2.27-9.93-2.27-15.11,0-7.05,1.44-13.86,4.32-20.41,1.88-4.27,4.18-8.18,6.91-11.74-3.05-1.31-5.86-3.31-8.21-5.96-1.13-1.28-2.1-2.65-2.9-4.08-3.66,4.67-6.72,9.84-9.19,15.52C1.8,58.67,0,67.49,0,76.84c0,6.48.87,12.74,2.6,18.79,1.72,6.05,4.13,11.74,7.23,17.06,3.09,5.33,6.87,10.12,11.34,14.36,2.97,2.83,6.16,5.36,9.59,7.58,2.92,1.9,6.81,1.23,8.98-1.49l.85-1.06c2.52-3.14,1.71-7.71-1.64-9.94Z"/>
  <circle class="cls-1" cx="35.03" cy="23.43" r="23.43"/>
</svg>