<?xml version="1.0" encoding="UTF-8"?>
<svg id="Layer_1" data-name="Layer 1" xmlns="http://www.w3.org/2000/svg" viewBox="0 0 786.07 207.17">
  <defs>
    <style>
      .cls-1 {
        fill: #92c03e;
      }

      .cls-2 {
        fill: #fff;
      }
    </style>
  </defs>
  <path class="cls-2" d="M16.74,92.18c1.51,4.9,3.63,9.47,6.37,13.71,2.73,4.25,6.01,8.1,9.83,11.55,1.91,1.73,3.91,3.29,6.02,4.7,3.35,2.23,4.15,6.8,1.64,9.94l-.85,1.06c-2.18,2.72-6.07,3.38-8.99,1.48-3.42-2.22-6.62-4.75-9.59-7.58-4.46-4.24-8.24-9.03-11.34-14.36-3.1-5.33-5.51-11.01-7.23-17.06-1.73-6.05-2.59-12.31-2.59-18.79,0-9.36,1.8-18.17,5.4-26.45,3.6-8.28,8.46-15.47,14.58-21.59,6.12-6.12,13.35-10.98,21.7-14.58,8.35-3.6,17.28-5.4,26.78-5.4s18.43,1.8,26.78,5.4c8.35,3.6,15.58,8.46,21.7,14.58,6.12,6.12,10.98,13.32,14.58,21.59,3.6,8.28,5.4,17.1,5.4,26.45,0,6.62-.9,12.99-2.7,19.11-1.8,6.12-4.36,11.81-7.67,17.06-3.31,5.26-7.27,10.01-11.88,14.25-2.99,2.75-6.19,5.19-9.59,7.31-3.1,1.93-7.19.97-9.2-2.07l-.51-.78c-2.07-3.13-1.23-7.37,1.92-9.41,2.28-1.48,4.48-3.14,6.6-4.98,3.89-3.38,7.2-7.2,9.93-11.45,2.73-4.25,4.89-8.82,6.48-13.71,1.58-4.89,2.38-9.93,2.38-15.12,0-7.05-1.44-13.85-4.32-20.41-2.88-6.55-6.77-12.27-11.66-17.17-4.9-4.89-10.62-8.82-17.17-11.77-6.55-2.95-13.5-4.43-20.84-4.43s-14.33,1.48-20.95,4.43c-6.62,2.95-12.38,6.88-17.28,11.77-4.9,4.9-8.78,10.62-11.66,17.17-2.88,6.55-4.32,13.36-4.32,20.41,0,5.18.76,10.22,2.27,15.12Z"/>
  <path class="cls-2" d="M202.24,130.37l-55.89-112.29c-2.11-4.24.97-9.21,5.7-9.21h1.91c2.44,0,4.66,1.39,5.73,3.58l42.53,87.29c2.32,4.76,9.1,4.78,11.44.03l43.07-87.35c1.07-2.18,3.29-3.55,5.72-3.55h1.89c4.74,0,7.82,4.99,5.69,9.23l-56.4,112.29c-2.36,4.69-9.06,4.68-11.4-.02Z"/>
  <path class="cls-2" d="M331.73,13.6l55.89,112.29c2.11,4.24-.97,9.21-5.7,9.21h-68.07c-5.12,0-8.15-5.73-5.26-9.96h0c1.19-1.74,3.16-2.78,5.26-2.78h45.9c4.71,0,7.79-4.94,5.72-9.17l-33.74-69.03c-2.32-4.75-9.08-4.77-11.43-.04l-43.47,87.45c-1.08,2.17-3.29,3.54-5.71,3.54h-1.5c-4.74,0-7.82-4.99-5.69-9.23l56.4-112.29c2.36-4.69,9.06-4.68,11.4.02Z"/>
  <path class="cls-2" d="M492.14,15.24h0c0,3.52-2.85,6.37-6.37,6.37h-34.39c-3.52,0-6.37,2.85-6.37,6.37v100.74c0,3.52-2.85,6.37-6.37,6.37h-1.42c-3.52,0-6.37-2.85-6.37-6.37V27.99c0-3.52-2.85-6.37-6.37-6.37h-34.19c-3.52,0-6.37-2.85-6.37-6.37h0c0-3.52,2.85-6.37,6.37-6.37h95.48c3.52,0,6.37,2.85,6.37,6.37Z"/>
  <path class="cls-2" d="M526.22,8.87h1.42c3.52,0,6.37,2.85,6.37,6.37v62.94c0,.32.02.64.07.96.84,5.89,2.71,11.39,5.6,16.51,2.97,5.26,6.68,9.88,11.13,13.86,4.45,3.98,9.54,7.08,15.27,9.31,5.73,2.23,11.76,3.34,18.11,3.34s12.37-1.11,18.1-3.34c5.73-2.23,10.82-5.33,15.27-9.31,4.45-3.98,8.12-8.6,11.03-13.86,2.82-5.12,4.65-10.62,5.5-16.51.05-.32.07-.65.07-.97V15.24c0-3.52,2.85-6.37,6.37-6.37h1.42c3.52,0,6.37,2.85,6.37,6.37v57.15c0,8.77-1.69,16.99-5.06,24.68-3.37,7.69-7.92,14.4-13.65,20.13-5.73,5.73-12.51,10.25-20.33,13.55-7.82,3.31-16.18,4.96-25.08,4.96s-17.26-1.65-25.08-4.96c-7.82-3.3-14.64-7.82-20.43-13.55-5.8-5.73-10.39-12.44-13.76-20.13-3.37-7.69-5.06-15.91-5.06-24.68V15.24c0-3.52,2.85-6.37,6.37-6.37Z"/>
  <path class="cls-2" d="M711.42,21.62c-7.28,0-12.74,2.09-16.39,6.27-3.64,4.18-5.46,9.51-5.46,15.98,0,5.66,1.28,10.39,3.84,14.16,1.87,2.76,4.58,4.8,8.11,6.12,2.52.94,4.23,3.3,4.23,5.99v.89c0,4.4-4.35,7.45-8.51,6.01-1.13-.39-2.24-.86-3.33-1.42-3.71-1.89-6.98-4.38-9.81-7.48-2.83-3.1-5.06-6.74-6.68-10.92-1.62-4.18-2.43-8.63-2.43-13.35,0-5.26.81-10.05,2.43-14.36,1.62-4.31,3.84-7.99,6.68-11.02,2.83-3.03,6.14-5.39,9.91-7.08,3.77-1.68,7.82-2.53,12.14-2.53h71.51c3.52,0,6.37,2.85,6.37,6.37h0c0,3.52-2.85,6.37-6.37,6.37h-66.25ZM749.65,122.36c7.28,0,12.74-2.09,16.39-6.27,3.64-4.18,5.46-9.51,5.46-15.98,0-5.66-1.28-10.35-3.84-14.06-1.87-2.71-4.57-4.71-8.1-6.02-2.53-.94-4.24-3.3-4.24-6v-1.08c0-4.4,4.35-7.45,8.51-6.01,1.13.39,2.24.86,3.33,1.42,3.71,1.89,6.98,4.38,9.81,7.48,2.83,3.1,5.06,6.78,6.68,11.02,1.62,4.25,2.43,8.67,2.43,13.25,0,5.26-.84,10.05-2.53,14.36-1.69,4.32-3.94,7.99-6.78,11.03-2.83,3.03-6.14,5.39-9.91,7.08-3.78,1.69-7.76,2.53-11.93,2.53h-71.51c-3.52,0-6.37-2.85-6.37-6.37h0c0-3.52,2.85-6.37,6.37-6.37h66.25Z"/>
  <circle class="cls-1" cx="35.02" cy="23.43" r="23.43"/>
  <g>
    <path class="cls-2" d="M315.25,193.75l-.11-.42h3.37l.11.27c.4,1.21,1.38,2.1,2.92,2.65,1.54.56,3.18.83,4.93.83,2,0,3.76-.37,5.31-1.1,1.54-.73,2.31-1.9,2.31-3.49s-.77-2.65-2.31-3.24c-1.54-.59-3.36-.89-5.46-.89s-3.76-.16-5.29-.47c-1.53-.32-2.81-.97-3.85-1.97s-1.55-2.44-1.55-4.34c0-2.63.96-4.55,2.88-5.76,1.92-1.21,4.29-1.82,7.12-1.82,2.63,0,5.05.5,7.26,1.5s3.51,2.62,3.88,4.87l.11.45h-3.37l-.11-.26c-.35-1.21-1.26-2.1-2.73-2.65-1.47-.56-3.04-.83-4.74-.83-1.84,0-3.47.35-4.87,1.04s-2.1,1.78-2.1,3.24.69,2.48,2.08,3.05c1.39.57,3.07.85,5.04.85,2.1,0,3.95.16,5.57.47,1.62.32,2.98.99,4.09,2.03,1.11,1.04,1.67,2.55,1.67,4.55,0,2.73-1.02,4.73-3.05,6.01-2.03,1.28-4.54,1.91-7.52,1.91-1.62,0-3.25-.2-4.91-.61-1.65-.4-3.11-1.09-4.36-2.07-1.25-.97-2.03-2.24-2.33-3.81Z"/>
    <path class="cls-2" d="M342.08,187.08c0-2.27.48-4.41,1.44-6.41.96-2,2.36-3.61,4.21-4.83,1.84-1.22,4.02-1.84,6.52-1.84s4.67.61,6.52,1.82c1.84,1.21,3.25,2.82,4.21,4.81.96,2,1.44,4.14,1.44,6.44s-.48,4.45-1.44,6.46c-.96,2.01-2.36,3.62-4.21,4.85-1.84,1.23-4.02,1.84-6.52,1.84s-4.67-.62-6.52-1.86c-1.84-1.24-3.25-2.86-4.21-4.87-.96-2.01-1.44-4.15-1.44-6.42ZM345.72,187.05c0,1.67.33,3.25,1,4.76.67,1.5,1.65,2.72,2.94,3.64,1.29.92,2.82,1.38,4.59,1.38s3.3-.46,4.6-1.38c1.3-.92,2.29-2.13,2.98-3.62s1.02-3.07,1.02-4.74-.34-3.25-1.02-4.76c-.68-1.5-1.68-2.72-2.99-3.64-1.31-.92-2.84-1.38-4.59-1.38s-3.3.46-4.59,1.38-2.27,2.13-2.94,3.62c-.67,1.49-1,3.07-1,4.74Z"/>
    <path class="cls-2" d="M372.28,174.5h3.34v22.1h14.97v3.07h-18.31v-25.17Z"/>
    <path class="cls-2" d="M394.87,187.65v-13.15h3.34v13.15c0,1.54.3,3.01.91,4.42s1.5,2.55,2.69,3.43c1.19.88,2.59,1.33,4.21,1.33s3.02-.44,4.21-1.33c1.19-.88,2.08-2.03,2.69-3.43s.91-2.87.91-4.42v-13.15h3.33v13.15c0,2.12-.43,4.14-1.29,6.06-.86,1.92-2.13,3.49-3.81,4.7-1.68,1.21-3.7,1.82-6.04,1.82s-4.33-.61-6.03-1.82c-1.69-1.21-2.97-2.78-3.83-4.7-.86-1.92-1.29-3.94-1.29-6.06Z"/>
    <path class="cls-2" d="M446.98,190.38l-.11.42c-.66,2.58-1.9,4.72-3.73,6.42-1.83,1.71-4.07,2.67-6.73,2.9l-.08.53h.08c1.69.35,2.54,1.36,2.54,3.03,0,1.09-.35,1.94-1.04,2.56-.7.62-1.59.93-2.67.93-1.26,0-2.23-.3-2.9-.89-.67-.59-1.09-1.51-1.27-2.75h2.08c.13.56.35.94.66,1.16.32.21.76.32,1.34.32.46,0,.85-.09,1.19-.28s.51-.51.51-.97c0-.73-.7-1.1-2.08-1.1-.38,0-.77.02-1.17.08l.95-2.5c-2.38-.1-4.44-.78-6.2-2.03s-3.09-2.86-4-4.83c-.91-1.97-1.36-4.07-1.36-6.29s.48-4.41,1.44-6.41c.96-2,2.36-3.61,4.21-4.83,1.84-1.22,4.02-1.84,6.52-1.84,1.97,0,3.76.4,5.36,1.21,1.6.81,2.95,1.91,4.04,3.32,1.09,1.4,1.86,3,2.31,4.79l.11.49h-3.71l-.08-.26c-.56-1.84-1.55-3.35-2.99-4.51-1.44-1.16-3.13-1.74-5.08-1.74-1.74,0-3.26.46-4.55,1.38-1.29.92-2.27,2.13-2.94,3.64-.67,1.5-1,3.08-1,4.72s.33,3.25,1,4.74c.67,1.49,1.65,2.7,2.94,3.64,1.29.93,2.8,1.4,4.55,1.4,1.95,0,3.64-.57,5.08-1.72s2.44-2.63,2.99-4.45l.08-.27h3.71Z"/>
    <path class="cls-2" d="M451.68,187.08c0-2.27.48-4.41,1.44-6.41.96-2,2.36-3.61,4.21-4.83,1.84-1.22,4.02-1.84,6.52-1.84s4.67.61,6.52,1.82c1.84,1.21,3.25,2.82,4.21,4.81.96,2,1.44,4.14,1.44,6.44s-.48,4.45-1.44,6.46c-.96,2.01-2.36,3.62-4.21,4.85-1.84,1.23-4.02,1.84-6.52,1.84s-4.67-.62-6.52-1.86c-1.84-1.24-3.25-2.86-4.21-4.87-.96-2.01-1.44-4.15-1.44-6.42ZM455.32,187.05c0,1.67.33,3.25,1,4.76.67,1.5,1.65,2.72,2.94,3.64,1.29.92,2.82,1.38,4.58,1.38s3.3-.46,4.61-1.38c1.3-.92,2.29-2.13,2.97-3.62.68-1.49,1.02-3.07,1.02-4.74s-.34-3.25-1.02-4.76c-.68-1.5-1.68-2.72-2.99-3.64s-2.84-1.38-4.59-1.38-3.3.46-4.58,1.38c-1.29.92-2.27,2.13-2.94,3.62-.67,1.49-1,3.07-1,4.74ZM466.84,164.53l1.29-1.36v2.77l-.61.57c-.35.4-.69.71-1,.91-.32.2-.7.3-1.16.3-.56,0-1.14-.28-1.74-.83-.33-.33-.56-.54-.68-.64-.18-.18-.38-.29-.61-.34l-.08.04c-.23.15-.7.56-1.4,1.21-.15.13-.35.32-.61.57s-.48.46-.68.61v-2.5l.57-.61c.38-.38.74-.68,1.08-.89.34-.21.7-.32,1.08-.32.58,0,1.15.24,1.71.72l.68.57c.28.28.49.47.64.57h.08c.28-.13.76-.57,1.44-1.33Z"/>
    <path class="cls-2" d="M481.89,174.5h22.78v3.15h-19.44v7.92h14.48v3.07h-14.48v7.96h19.44v3.07h-22.78v-25.17Z"/>
    <path class="cls-2" d="M509.93,193.75l-.11-.42h3.37l.11.27c.4,1.21,1.38,2.1,2.92,2.65,1.54.56,3.18.83,4.93.83,2,0,3.76-.37,5.31-1.1,1.54-.73,2.31-1.9,2.31-3.49s-.77-2.65-2.31-3.24c-1.54-.59-3.36-.89-5.46-.89s-3.76-.16-5.29-.47c-1.53-.32-2.81-.97-3.85-1.97-1.04-1-1.55-2.44-1.55-4.34,0-2.63.96-4.55,2.88-5.76s4.29-1.82,7.12-1.82c2.63,0,5.05.5,7.26,1.5,2.21,1,3.5,2.62,3.88,4.87l.11.45h-3.37l-.11-.26c-.35-1.21-1.26-2.1-2.73-2.65-1.46-.56-3.04-.83-4.74-.83-1.84,0-3.47.35-4.87,1.04-1.4.7-2.1,1.78-2.1,3.24s.69,2.48,2.08,3.05,3.07.85,5.04.85c2.1,0,3.95.16,5.57.47,1.62.32,2.98.99,4.09,2.03,1.11,1.04,1.67,2.55,1.67,4.55,0,2.73-1.02,4.73-3.05,6.01-2.03,1.28-4.54,1.91-7.52,1.91-1.62,0-3.25-.2-4.91-.61-1.66-.4-3.11-1.09-4.36-2.07-1.25-.97-2.03-2.24-2.33-3.81Z"/>
    <path class="cls-2" d="M550.1,174.5h3.33v22.1h14.97v3.07h-18.3v-25.17Z"/>
    <path class="cls-2" d="M571.51,187.08c0-2.27.48-4.41,1.44-6.41.96-2,2.36-3.61,4.21-4.83,1.84-1.22,4.02-1.84,6.52-1.84s4.67.61,6.52,1.82c1.84,1.21,3.25,2.82,4.21,4.81.96,2,1.44,4.14,1.44,6.44s-.48,4.45-1.44,6.46c-.96,2.01-2.36,3.62-4.21,4.85-1.84,1.23-4.02,1.84-6.52,1.84s-4.67-.62-6.52-1.86c-1.84-1.24-3.25-2.86-4.21-4.87-.96-2.01-1.44-4.15-1.44-6.42ZM575.15,187.05c0,1.67.33,3.25,1,4.76.67,1.5,1.65,2.72,2.94,3.64,1.29.92,2.82,1.38,4.58,1.38s3.3-.46,4.61-1.38c1.3-.92,2.29-2.13,2.97-3.62.68-1.49,1.02-3.07,1.02-4.74s-.34-3.25-1.02-4.76c-.68-1.5-1.68-2.72-2.99-3.64s-2.84-1.38-4.59-1.38-3.3.46-4.58,1.38c-1.29.92-2.27,2.13-2.94,3.62-.67,1.49-1,3.07-1,4.74Z"/>
    <path class="cls-2" d="M600.54,187.08c0-2.25.48-4.37,1.44-6.37.96-2,2.36-3.61,4.19-4.85,1.83-1.24,3.99-1.86,6.46-1.86,2.27,0,4.35.55,6.23,1.65,1.88,1.1,3.35,2.62,4.42,4.57l.27.53-4.09.04-.11-.15c-.81-1.04-1.8-1.85-2.98-2.44-1.17-.59-2.42-.89-3.73-.89-1.74,0-3.25.46-4.53,1.38s-2.25,2.13-2.92,3.62c-.67,1.49-1,3.07-1,4.74s.33,3.25,1,4.76c.67,1.5,1.65,2.72,2.94,3.64,1.29.92,2.82,1.38,4.58,1.38,1.54,0,2.92-.36,4.15-1.08,1.23-.72,2.22-1.68,2.97-2.88.76-1.2,1.25-2.52,1.48-3.96h-7.77v-3.11h11.26l.04.34.04.95c0,2.27-.48,4.42-1.44,6.42s-2.36,3.63-4.19,4.87c-1.83,1.24-4,1.86-6.5,1.86s-4.68-.61-6.54-1.84c-1.86-1.23-3.27-2.84-4.23-4.85-.96-2.01-1.44-4.16-1.44-6.46Z"/>
    <path class="cls-2" d="M631.81,168.36h-2.43l2.46-5.31h3.71l-3.75,5.31ZM630.83,199.67v-25.17h3.33v25.17h-3.33Z"/>
    <path class="cls-2" d="M640.19,193.75l-.11-.42h3.37l.11.27c.4,1.21,1.38,2.1,2.92,2.65,1.54.56,3.18.83,4.93.83,2,0,3.76-.37,5.31-1.1,1.54-.73,2.31-1.9,2.31-3.49s-.77-2.65-2.31-3.24c-1.54-.59-3.36-.89-5.46-.89s-3.76-.16-5.29-.47c-1.53-.32-2.81-.97-3.85-1.97-1.04-1-1.55-2.44-1.55-4.34,0-2.63.96-4.55,2.88-5.76s4.29-1.82,7.12-1.82c2.63,0,5.05.5,7.26,1.5,2.21,1,3.5,2.62,3.88,4.87l.11.45h-3.37l-.11-.26c-.35-1.21-1.26-2.1-2.73-2.65-1.46-.56-3.04-.83-4.74-.83-1.84,0-3.47.35-4.87,1.04-1.4.7-2.1,1.78-2.1,3.24s.69,2.48,2.08,3.05,3.07.85,5.04.85c2.1,0,3.95.16,5.57.47,1.62.32,2.98.99,4.09,2.03,1.11,1.04,1.67,2.55,1.67,4.55,0,2.73-1.02,4.73-3.05,6.01-2.03,1.28-4.54,1.91-7.52,1.91-1.62,0-3.25-.2-4.91-.61-1.66-.4-3.11-1.09-4.36-2.07-1.25-.97-2.03-2.24-2.33-3.81Z"/>
    <path class="cls-2" d="M675.73,177.65h-9.97v-3.15h23.34v3.15h-10.04v22.02h-3.33v-22.02Z"/>
    <path class="cls-2" d="M694.49,174.5h3.33v25.17h-3.33v-25.17Z"/>
    <path class="cls-2" d="M703.67,187.08c0-2.27.48-4.41,1.44-6.41.96-2,2.36-3.61,4.21-4.83,1.84-1.22,4.02-1.84,6.52-1.84,1.97,0,3.76.4,5.36,1.21,1.6.81,2.95,1.91,4.04,3.32,1.09,1.4,1.86,3,2.31,4.79l.11.49h-3.71l-.08-.26c-.56-1.84-1.55-3.35-2.99-4.51-1.44-1.16-3.13-1.74-5.08-1.74-1.74,0-3.26.46-4.55,1.38-1.29.92-2.27,2.13-2.94,3.64-.67,1.5-1,3.08-1,4.72s.33,3.25,1,4.74c.67,1.49,1.65,2.7,2.94,3.64,1.29.93,2.8,1.4,4.55,1.4,1.95,0,3.64-.57,5.08-1.72s2.44-2.63,2.99-4.45l.08-.27h3.71l-.11.42c-.46,1.82-1.23,3.44-2.31,4.85-1.09,1.42-2.43,2.53-4.04,3.35-1.6.82-3.39,1.23-5.36,1.23-2.5,0-4.67-.62-6.52-1.86-1.84-1.24-3.25-2.86-4.21-4.87-.96-2.01-1.44-4.15-1.44-6.42Z"/>
    <path class="cls-2" d="M730.08,199.67l10.84-25.32h3.56l11.18,25.32h-3.6l-2.92-6.71h-12.66l-2.84,6.71h-3.56ZM737.62,189.89h10.5l-5.38-12.13-5.12,12.13Z"/>
    <path class="cls-2" d="M759.15,193.75l-.11-.42h3.37l.11.27c.4,1.21,1.38,2.1,2.92,2.65,1.54.56,3.18.83,4.93.83,2,0,3.76-.37,5.31-1.1,1.54-.73,2.31-1.9,2.31-3.49s-.77-2.65-2.31-3.24c-1.54-.59-3.36-.89-5.46-.89s-3.76-.16-5.29-.47c-1.53-.32-2.81-.97-3.85-1.97-1.04-1-1.55-2.44-1.55-4.34,0-2.63.96-4.55,2.88-5.76s4.29-1.82,7.12-1.82c2.63,0,5.05.5,7.26,1.5,2.21,1,3.5,2.62,3.88,4.87l.11.45h-3.37l-.11-.26c-.35-1.21-1.26-2.1-2.73-2.65-1.46-.56-3.04-.83-4.74-.83-1.84,0-3.47.35-4.87,1.04-1.4.7-2.1,1.78-2.1,3.24s.69,2.48,2.08,3.05,3.07.85,5.04.85c2.1,0,3.95.16,5.57.47,1.62.32,2.98.99,4.09,2.03,1.11,1.04,1.67,2.55,1.67,4.55,0,2.73-1.02,4.73-3.05,6.01-2.03,1.28-4.54,1.91-7.52,1.91-1.62,0-3.25-.2-4.91-.61-1.66-.4-3.11-1.09-4.36-2.07-1.25-.97-2.03-2.24-2.33-3.81Z"/>
  </g>
</svg>